<svg width="37" height="42" viewBox="0 0 37 42" fill="none" xmlns="http://www.w3.org/2000/svg">
<path d="M1.48001 1.78H8.51999V7.22H8.84C9.96 5.3 11.667 3.7 13.96 2.42C16.307 1.14 18.733 0.5 21.24 0.5C26.04 0.5 29.72 1.8867 32.28 4.66C34.893 7.38 36.2 11.2733 36.2 16.34V40.98H28.84V16.82C28.68 10.42 25.453 7.22 19.16 7.22C16.227 7.22 13.773 8.42 11.8 10.82C9.82699 13.1667 8.84 15.9933 8.84 19.3V40.98H1.48001V1.78Z" fill="#5186EC"/>
<path fill-rule="evenodd" clip-rule="evenodd" d="M0.980011 1.28H9.01999V6.0265C10.167 4.4337 11.738 3.0877 13.716 1.9834L13.721 1.981C16.136 0.663699 18.644 0 21.24 0C26.137 0 29.965 1.4175 32.644 4.3172C35.372 7.1584 36.7 11.1918 36.7 16.34V41.48H28.34V16.8263C28.261 13.7054 27.437 11.4517 25.948 9.975C24.459 8.4988 22.226 7.72 19.16 7.72C16.386 7.72 14.071 8.8452 12.186 11.1376L12.183 11.1418C10.291 13.3911 9.34 16.1011 9.34 19.3V41.48H0.980011V1.28ZM32.28 4.66C29.72 1.8867 26.04 0.5 21.24 0.5C18.733 0.5 16.307 1.14 13.96 2.42C11.786 3.6333 10.14 5.134 9.01999 6.9222C8.95799 7.0206 8.898 7.1199 8.84 7.22H8.51999V1.78H1.48001V40.98H8.84V19.3C8.84 15.9933 9.82699 13.1667 11.8 10.82C13.773 8.42 16.227 7.22 19.16 7.22C25.453 7.22 28.68 10.42 28.84 16.82V40.98H36.2V16.34C36.2 11.2733 34.893 7.38 32.28 4.66Z" fill="#5186EC"/>
</svg>
