<svg width="43" height="43" viewBox="0 0 43 43" fill="none" xmlns="http://www.w3.org/2000/svg">
<path d="M1.23999 21.38C1.23999 15.3533 3.13301 10.3667 6.92001 6.42C10.76 2.4733 15.587 0.5 21.4 0.5C27.213 0.5 32.013 2.4733 35.8 6.42C39.64 10.3667 41.56 15.3533 41.56 21.38C41.56 27.46 39.64 32.4467 35.8 36.34C32.013 40.2867 27.213 42.26 21.4 42.26C15.587 42.26 10.76 40.2867 6.92001 36.34C3.13301 32.3933 1.23999 27.4067 1.23999 21.38ZM8.60001 21.38C8.60001 25.5933 9.827 29.0067 12.28 31.62C14.733 34.2333 17.773 35.54 21.4 35.54C25.027 35.54 28.067 34.2333 30.52 31.62C32.973 29.0067 34.2 25.5933 34.2 21.38C34.2 17.22 32.973 13.8333 30.52 11.22C28.013 8.5533 24.973 7.22 21.4 7.22C17.827 7.22 14.787 8.5533 12.28 11.22C9.827 13.8333 8.60001 17.22 8.60001 21.38Z" fill="#F2BD42"/>
<path fill-rule="evenodd" clip-rule="evenodd" d="M6.55899 6.0738L6.56201 6.0713C10.501 2.0221 15.46 0 21.4 0C27.339 0 32.272 2.0218 36.16 6.0727C40.099 10.1217 42.06 15.2373 42.06 21.38C42.06 27.5741 40.1 32.6912 36.158 36.6886C32.271 40.7386 27.339 42.76 21.4 42.76C15.46 42.76 10.501 40.7379 6.56201 36.6887L6.55899 36.6862C2.67399 32.6365 0.73999 27.5214 0.73999 21.38C0.73999 15.2387 2.67399 10.1235 6.55899 6.0738ZM35.8 36.34C39.64 32.4467 41.56 27.46 41.56 21.38C41.56 15.3533 39.64 10.3667 35.8 6.42C32.013 2.4733 27.213 0.5 21.4 0.5C15.587 0.5 10.76 2.4733 6.92001 6.42C3.13301 10.3667 1.23999 15.3533 1.23999 21.38C1.23999 27.4067 3.13301 32.3933 6.92001 36.34C10.76 40.2867 15.587 42.26 21.4 42.26C27.213 42.26 32.013 40.2867 35.8 36.34ZM9.10001 21.38C9.10001 25.49 10.293 28.7732 12.645 31.2778C15.002 33.7891 17.91 35.04 21.4 35.04C24.89 35.04 27.798 33.7891 30.155 31.2778C32.507 28.7732 33.7 25.49 33.7 21.38C33.7 17.3254 32.508 14.0683 30.156 11.5625C27.741 8.9936 24.832 7.72 21.4 7.72C17.968 7.72 15.059 8.9935 12.645 11.5622L9.10001 21.38ZM9.10001 21.38C9.10001 17.3253 10.292 14.0681 12.644 11.5623L9.10001 21.38ZM12.28 31.62C9.827 29.0067 8.60001 25.5933 8.60001 21.38C8.60001 17.22 9.827 13.8333 12.28 11.22C14.787 8.5533 17.827 7.22 21.4 7.22C24.973 7.22 28.013 8.5533 30.52 11.22C32.973 13.8333 34.2 17.22 34.2 21.38C34.2 25.5933 32.973 29.0067 30.52 31.62C28.067 34.2333 25.027 35.54 21.4 35.54C17.773 35.54 14.733 34.2333 12.28 31.62Z" fill="#F2BD42"/>
</svg>
