<svg width="224" height="60" viewBox="0 0 224 60" fill="none" xmlns="http://www.w3.org/2000/svg">
<path d="M170.84 57.78H163.48V18.58H170.52V24.02H170.84C171.96 22.1 173.667 20.5 175.96 19.22C178.307 17.94 180.627 17.3 182.92 17.3C185.8 17.3 188.333 17.9667 190.52 19.3C192.707 20.6333 194.307 22.4733 195.32 24.82C198.573 19.8067 203.08 17.3 208.84 17.3C213.373 17.3 216.867 18.6867 219.32 21.46C221.773 24.2333 223 28.18 223 33.3V57.78H215.64V34.42C215.64 30.74 214.973 28.1 213.64 26.5C212.307 24.8467 210.067 24.02 206.92 24.02C204.093 24.02 201.72 25.22 199.8 27.62C197.88 30.02 196.92 32.8467 196.92 36.1V57.78H189.56V34.42C189.56 30.74 188.893 28.1 187.56 26.5C186.227 24.8467 183.987 24.02 180.84 24.02C178.013 24.02 175.64 25.22 173.72 27.62C171.8 30.02 170.84 32.8467 170.84 36.1V57.78Z" fill="#F2BD42"/>
<path fill-rule="evenodd" clip-rule="evenodd" d="M171.34 58.28H162.98V18.08H171.02V22.8265C172.167 21.2337 173.738 19.8877 175.716 18.7834L175.721 18.781C178.128 17.4677 180.53 16.8 182.92 16.8C185.88 16.8 188.506 17.4862 190.78 18.8731C192.798 20.1034 194.34 21.7528 195.398 23.8139C198.699 19.152 203.192 16.8 208.84 16.8C213.482 16.8 217.125 18.2245 219.695 21.1287C222.255 24.0233 223.5 28.1047 223.5 33.3V58.28H215.14V34.42C215.14 30.7764 214.475 28.2834 213.256 26.8201L213.251 26.8139C212.051 25.3263 209.99 24.52 206.92 24.52C204.26 24.52 202.025 25.6391 200.19 27.9324C198.346 30.2383 197.42 32.9531 197.42 36.1V58.28H189.06V34.42C189.06 30.7764 188.395 28.2834 187.176 26.8201L187.171 26.8139C185.971 25.3263 183.91 24.52 180.84 24.52C178.18 24.52 175.945 25.6391 174.11 27.9324C172.266 30.2383 171.34 32.9531 171.34 36.1V58.28ZM195.648 24.3287C195.538 24.4897 195.428 24.6535 195.32 24.82C195.242 24.6384 195.16 24.4598 195.074 24.2843C194.056 22.1916 192.537 20.5302 190.52 19.3C188.333 17.9667 185.8 17.3 182.92 17.3C180.627 17.3 178.307 17.94 175.96 19.22C173.786 20.4333 172.14 21.934 171.02 23.7222C170.958 23.8206 170.898 23.9199 170.84 24.02H170.52V18.58H163.48V57.78H170.84V36.1C170.84 32.8467 171.8 30.02 173.72 27.62C175.64 25.22 178.013 24.02 180.84 24.02C183.987 24.02 186.227 24.8467 187.56 26.5C188.893 28.1 189.56 30.74 189.56 34.42V57.78H196.92V36.1C196.92 32.8467 197.88 30.02 199.8 27.62C201.72 25.22 204.093 24.02 206.92 24.02C210.067 24.02 212.307 24.8467 213.64 26.5C214.973 28.1 215.64 30.74 215.64 34.42V57.78H223V33.3C223 28.18 221.773 24.2333 219.32 21.46C216.867 18.6867 213.373 17.3 208.84 17.3C203.271 17.3 198.874 19.6429 195.648 24.3287Z" fill="#F2BD42"/>
<path d="M118.96 58.78H110.08L97.84 40.3L91.84 46.22V58.78H84.48V1.5H91.84V36.78L108.8 19.58H118.24V19.9L102.96 35.1L118.96 58.46V58.78Z" fill="#F2BD42"/>
<path fill-rule="evenodd" clip-rule="evenodd" d="M119.46 59.28H109.811L97.7587 41.0827L92.34 46.4291V59.28H83.98V1H92.34V35.5608L108.591 19.08H118.74V20.1079L103.608 35.1609L119.46 58.3052V59.28ZM102.96 35.1L118.24 19.9V19.58H108.8L91.84 36.78V1.5H84.48V58.78H91.84V46.22L97.84 40.3L110.08 58.78H118.96V58.46L102.96 35.1Z" fill="#F2BD42"/>
<path d="M38.24 38.18C38.24 32.1533 40.1334 27.1667 43.92 23.22C47.76 19.2733 52.5867 17.3 58.4 17.3C64.2134 17.3 69.0134 19.2733 72.8 23.22C76.64 27.1667 78.56 32.1533 78.56 38.18C78.56 44.26 76.64 49.2467 72.8 53.14C69.0134 57.0867 64.2134 59.06 58.4 59.06C52.5867 59.06 47.76 57.0867 43.92 53.14C40.1334 49.1933 38.24 44.2067 38.24 38.18ZM45.6 38.18C45.6 42.3933 46.8267 45.8067 49.28 48.42C51.7334 51.0333 54.7734 52.34 58.4 52.34C62.0267 52.34 65.0667 51.0333 67.52 48.42C69.9734 45.8067 71.2 42.3933 71.2 38.18C71.2 34.02 69.9734 30.6333 67.52 28.02C65.0134 25.3533 61.9734 24.02 58.4 24.02C54.8267 24.02 51.7867 25.3533 49.28 28.02C46.8267 30.6333 45.6 34.02 45.6 38.18Z" fill="#EF3A35"/>
<path fill-rule="evenodd" clip-rule="evenodd" d="M43.5592 22.8738L43.5616 22.8713C47.5015 18.8221 52.4601 16.8 58.4 16.8C64.3394 16.8 69.2725 18.8218 73.1597 22.8727C77.0986 26.9217 79.06 32.0373 79.06 38.18C79.06 44.3741 77.0998 49.4912 73.1585 53.4886C69.2714 57.5386 64.3388 59.56 58.4 59.56C52.4601 59.56 47.5015 57.5379 43.5617 53.4887L43.5592 53.4862C39.6738 49.4365 37.74 44.3214 37.74 38.18C37.74 32.0387 39.6738 26.9235 43.5592 22.8738ZM72.8 53.14C76.64 49.2467 78.56 44.26 78.56 38.18C78.56 32.1533 76.64 27.1667 72.8 23.22C69.0134 19.2733 64.2134 17.3 58.4 17.3C52.5867 17.3 47.76 19.2733 43.92 23.22C40.1334 27.1667 38.24 32.1533 38.24 38.18C38.24 44.2067 40.1334 49.1933 43.92 53.14C47.76 57.0867 52.5867 59.06 58.4 59.06C64.2134 59.06 69.0134 57.0867 72.8 53.14ZM46.1 38.18C46.1 42.29 47.2933 45.5732 49.6446 48.0778C52.0021 50.5891 54.9096 51.84 58.4 51.84C61.8904 51.84 64.7979 50.5891 67.1555 48.0778C69.5068 45.5732 70.7 42.29 70.7 38.18C70.7 34.1254 69.508 30.8683 67.1557 28.3625C64.741 25.7936 61.8316 24.52 58.4 24.52C54.9685 24.52 52.0593 25.7935 49.6446 28.3622L46.1 38.18ZM46.1 38.18C46.1 34.1253 47.2921 30.8681 49.6445 28.3623L46.1 38.18ZM49.28 48.42C46.8267 45.8067 45.6 42.3933 45.6 38.18C45.6 34.02 46.8267 30.6333 49.28 28.02C51.7867 25.3533 54.8267 24.02 58.4 24.02C61.9734 24.02 65.0134 25.3533 67.52 28.02C69.9734 30.6333 71.2 34.02 71.2 38.18C71.2 42.3933 69.9734 45.8067 67.52 48.42C65.0667 51.0333 62.0267 52.34 58.4 52.34C54.7734 52.34 51.7334 51.0333 49.28 48.42Z" fill="#D85040"/>
<path d="M8.12001 34.58V57.78H0.76001V0.5H20.28C25.24 0.5 29.4533 2.15333 32.92 5.46C36.44 8.76667 38.2 12.7933 38.2 17.54C38.2 22.3933 36.44 26.4467 32.92 29.7C29.5067 32.9533 25.2933 34.58 20.28 34.58H8.12001ZM8.12001 7.54V27.54H20.44C23.3733 27.54 25.8 26.5533 27.72 24.58C29.6933 22.6067 30.68 20.26 30.68 17.54C30.68 14.8733 29.6933 12.5533 27.72 10.58C25.8 8.55334 23.3733 7.54 20.44 7.54H8.12001Z" fill="#5186EC"/>
<path fill-rule="evenodd" clip-rule="evenodd" d="M8.62001 58.28H0.26001V0H20.28C25.3629 0 29.7009 1.69903 33.2639 5.09707C36.8815 8.49609 38.7 12.6533 38.7 17.54C38.7 22.5294 36.8842 26.7156 33.2623 30.0645C29.7502 33.4107 25.4116 35.08 20.28 35.08H8.62001V58.28ZM8.12001 34.58H20.28C25.2933 34.58 29.5067 32.9533 32.92 29.7C36.44 26.4467 38.2 22.3933 38.2 17.54C38.2 12.7933 36.44 8.76667 32.92 5.46C29.4533 2.15333 25.24 0.5 20.28 0.5H0.76001V57.78H8.12001V34.58ZM27.3665 24.2264C29.2488 22.3442 30.18 20.1236 30.18 17.54C30.18 15.0127 29.2509 12.818 27.3665 10.9336L27.3569 10.924C25.5366 9.00254 23.2439 8.04 20.44 8.04H8.62001V27.04H20.44C23.2482 27.04 25.5424 26.1011 27.3616 24.2313L27.3665 24.2264ZM8.12001 27.54V7.54H20.44C23.3733 7.54 25.8 8.55333 27.72 10.58C29.6933 12.5533 30.68 14.8733 30.68 17.54C30.68 20.26 29.6933 22.6067 27.72 24.58C25.8 26.5533 23.3733 27.54 20.44 27.54H8.12001Z" fill="#5186EC"/>
<path d="M145.903 57.2166C140.6 59.4665 135.46 59.5041 130.482 57.3292C125.503 55.1543 121.837 51.2929 119.483 45.745C117.15 40.2462 116.882 34.972 118.679 29.9222C120.455 24.8234 123.945 21.1699 129.149 18.9616C134.501 16.6909 139.487 16.6318 144.108 18.7844C148.758 20.8671 152.405 25.026 155.051 31.2612L155.29 32.0289L126.937 44.0596C128.535 47.5529 130.921 49.9005 134.096 51.1025C137.272 52.3044 140.43 52.2388 143.572 50.9055C147.893 49.0722 150.364 45.4746 150.985 40.1125L158.274 40.4959C157.946 44.2273 156.698 47.5668 154.53 50.5143C152.412 53.4409 149.536 55.675 145.903 57.2166ZM125.077 38.2439L145.771 29.4631C144.513 27.0425 142.607 25.4179 140.054 24.5894C137.529 23.6909 134.72 23.8979 131.627 25.2103C129.074 26.2936 127.198 28.0166 125.999 30.3793C124.849 32.7212 124.542 35.3427 125.077 38.2439Z" fill="#5186EC"/>
<path fill-rule="evenodd" clip-rule="evenodd" d="M158.225 40.994C157.832 44.5251 156.601 47.6986 154.53 50.5143C152.412 53.4409 149.536 55.675 145.903 57.2166C140.6 59.4665 135.46 59.5041 130.482 57.3292C125.503 55.1543 121.837 51.2929 119.483 45.745C117.15 40.2462 116.882 34.972 118.679 29.9222C120.455 24.8234 123.945 21.1699 129.149 18.9616C134.501 16.6909 139.487 16.6318 144.108 18.7844C148.758 20.8671 152.405 25.026 155.051 31.2612L155.29 32.0289L126.937 44.0596C127.007 44.2125 127.078 44.3633 127.151 44.5118C128.745 47.7563 131.06 49.9532 134.096 51.1025C137.272 52.3044 140.43 52.2388 143.572 50.9055C147.893 49.0723 150.364 45.4746 150.985 40.1125L158.274 40.4959C158.26 40.6627 158.243 40.8287 158.225 40.994ZM127.612 44.3162C129.157 47.4482 131.379 49.5391 134.274 50.6349C137.327 51.791 140.353 51.7285 143.377 50.4452C147.504 48.694 149.884 45.2705 150.489 40.0549L150.543 39.5885L158.818 40.0238L158.772 40.5397C158.436 44.3594 157.157 47.786 154.934 50.8087C152.758 53.8152 149.806 56.1034 146.098 57.6769C140.678 59.9769 135.394 60.0209 130.281 57.7874C125.173 55.5556 121.421 51.5919 119.023 45.9404C116.647 40.341 116.364 34.9373 118.207 29.7562C120.032 24.518 123.627 20.7616 128.954 18.5014C134.414 16.1844 139.549 16.1102 144.316 18.3297C149.113 20.4795 152.834 24.7552 155.511 31.0659L155.521 31.0889L155.902 32.3125L127.612 44.3162ZM139.886 25.0604C137.507 24.2139 134.83 24.3941 131.822 25.6706C129.373 26.7097 127.589 28.3517 126.446 30.6025C125.432 32.6699 125.099 34.9749 125.467 37.5352L145.066 29.2192C143.872 27.1755 142.155 25.7969 139.899 25.0649L139.886 25.0604ZM145.53 29.0223C145.613 29.1662 145.693 29.3131 145.771 29.4631L125.077 38.2439C125.046 38.074 125.017 37.905 124.992 37.737C124.58 35.0366 124.916 32.584 125.999 30.3793C127.198 28.0166 129.074 26.2936 131.627 25.2103C134.72 23.8979 137.529 23.6909 140.054 24.5894C142.448 25.3666 144.274 26.8442 145.53 29.0223Z" fill="#5186EC"/>
</svg>
