<svg width="355" height="66" viewBox="0 0 355 66" fill="none" xmlns="http://www.w3.org/2000/svg">
<path d="M319.48 18.8H326.52V24.24H326.84C327.96 22.32 329.667 20.72 331.96 19.44C334.307 18.16 336.733 17.52 339.24 17.52C344.04 17.52 347.72 18.9067 350.28 21.68C352.893 24.4 354.2 28.2933 354.2 33.36V58H346.84V33.84C346.68 27.44 343.453 24.24 337.16 24.24C334.227 24.24 331.773 25.44 329.8 27.84C327.827 30.1867 326.84 33.0133 326.84 36.32V58H319.48V18.8Z" fill="#5186EC"/>
<path fill-rule="evenodd" clip-rule="evenodd" d="M318.98 18.3H327.02V23.0465C328.167 21.4537 329.738 20.1077 331.716 19.0034L331.721 19.001C334.136 17.6837 336.644 17.02 339.24 17.02C344.137 17.02 347.965 18.4375 350.644 21.3372C353.372 24.1784 354.7 28.2118 354.7 33.36V58.5H346.34V33.8463C346.261 30.7254 345.437 28.4717 343.948 26.995C342.459 25.5188 340.226 24.74 337.16 24.74C334.386 24.74 332.071 25.8652 330.186 28.1576L330.183 28.1618C328.291 30.4111 327.34 33.1211 327.34 36.32V58.5H318.98V18.3ZM350.28 21.68C347.72 18.9067 344.04 17.52 339.24 17.52C336.733 17.52 334.307 18.16 331.96 19.44C329.786 20.6533 328.14 22.154 327.02 23.9422C326.958 24.0406 326.898 24.1399 326.84 24.24H326.52V18.8H319.48V58H326.84V36.32C326.84 33.0133 327.827 30.1867 329.8 27.84C331.773 25.44 334.227 24.24 337.16 24.24C343.453 24.24 346.68 27.44 346.84 33.84V58H354.2V33.36C354.2 28.2933 352.893 24.4 350.28 21.68Z" fill="#5186EC"/>
<path d="M274.24 38.4C274.24 32.3733 276.133 27.3867 279.92 23.44C283.76 19.4933 288.587 17.52 294.4 17.52C300.213 17.52 305.013 19.4933 308.8 23.44C312.64 27.3867 314.56 32.3733 314.56 38.4C314.56 44.48 312.64 49.4667 308.8 53.36C305.013 57.3067 300.213 59.28 294.4 59.28C288.587 59.28 283.76 57.3067 279.92 53.36C276.133 49.4133 274.24 44.4267 274.24 38.4ZM281.6 38.4C281.6 42.6133 282.827 46.0267 285.28 48.64C287.733 51.2533 290.773 52.56 294.4 52.56C298.027 52.56 301.067 51.2533 303.52 48.64C305.973 46.0267 307.2 42.6133 307.2 38.4C307.2 34.24 305.973 30.8533 303.52 28.24C301.013 25.5733 297.973 24.24 294.4 24.24C290.827 24.24 287.787 25.5733 285.28 28.24C282.827 30.8533 281.6 34.24 281.6 38.4Z" fill="#F2BD42"/>
<path fill-rule="evenodd" clip-rule="evenodd" d="M279.559 23.0938L279.562 23.0913C283.501 19.0421 288.46 17.02 294.4 17.02C300.339 17.02 305.272 19.0418 309.16 23.0927C313.099 27.1417 315.06 32.2573 315.06 38.4C315.06 44.5941 313.1 49.7112 309.158 53.7086C305.271 57.7586 300.339 59.78 294.4 59.78C288.46 59.78 283.501 57.7579 279.562 53.7087L279.559 53.7062C275.674 49.6565 273.74 44.5414 273.74 38.4C273.74 32.2587 275.674 27.1435 279.559 23.0938ZM308.8 53.36C312.64 49.4667 314.56 44.48 314.56 38.4C314.56 32.3733 312.64 27.3867 308.8 23.44C305.013 19.4933 300.213 17.52 294.4 17.52C288.587 17.52 283.76 19.4933 279.92 23.44C276.133 27.3867 274.24 32.3733 274.24 38.4C274.24 44.4267 276.133 49.4133 279.92 53.36C283.76 57.3067 288.587 59.28 294.4 59.28C300.213 59.28 305.013 57.3067 308.8 53.36ZM282.1 38.4C282.1 42.51 283.293 45.7932 285.645 48.2978C288.002 50.8091 290.91 52.06 294.4 52.06C297.89 52.06 300.798 50.8091 303.155 48.2978C305.507 45.7932 306.7 42.51 306.7 38.4C306.7 34.3454 305.508 31.0883 303.156 28.5825C300.741 26.0136 297.832 24.74 294.4 24.74C290.968 24.74 288.059 26.0135 285.645 28.5822M282.1 38.4C282.1 34.3453 283.292 31.0881 285.644 28.5823ZM285.28 48.64C282.827 46.0267 281.6 42.6133 281.6 38.4C281.6 34.24 282.827 30.8533 285.28 28.24C287.787 25.5733 290.827 24.24 294.4 24.24C297.973 24.24 301.013 25.5733 303.52 28.24C305.973 30.8533 307.2 34.24 307.2 38.4C307.2 42.6133 305.973 46.0267 303.52 48.64C301.067 51.2533 298.027 52.56 294.4 52.56C290.773 52.56 287.733 51.2533 285.28 48.64Z" fill="#F2BD42"/>
<path d="M229.24 38.4C229.24 32.3733 231.133 27.3867 234.92 23.44C238.76 19.4933 243.587 17.52 249.4 17.52C255.213 17.52 260.013 19.4933 263.8 23.44C267.64 27.3867 269.56 32.3733 269.56 38.4C269.56 44.48 267.64 49.4667 263.8 53.36C260.013 57.3067 255.213 59.28 249.4 59.28C243.587 59.28 238.76 57.3067 234.92 53.36C231.133 49.4133 229.24 44.4267 229.24 38.4ZM236.6 38.4C236.6 42.6133 237.827 46.0267 240.28 48.64C242.733 51.2533 245.773 52.56 249.4 52.56C253.027 52.56 256.067 51.2533 258.52 48.64C260.973 46.0267 262.2 42.6133 262.2 38.4C262.2 34.24 260.973 30.8533 258.52 28.24C256.013 25.5733 252.973 24.24 249.4 24.24C245.827 24.24 242.787 25.5733 240.28 28.24C237.827 30.8533 236.6 34.24 236.6 38.4Z" fill="#D85040"/>
<path fill-rule="evenodd" clip-rule="evenodd" d="M234.559 23.0938L234.562 23.0913C238.501 19.0421 243.46 17.02 249.4 17.02C255.339 17.02 260.272 19.0418 264.16 23.0927C268.099 27.1417 270.06 32.2573 270.06 38.4C270.06 44.5941 268.1 49.7112 264.158 53.7086C260.271 57.7586 255.339 59.78 249.4 59.78C243.46 59.78 238.501 57.7579 234.562 53.7087L234.559 53.7062C230.674 49.6565 228.74 44.5414 228.74 38.4C228.74 32.2587 230.674 27.1435 234.559 23.0938ZM263.8 53.36C267.64 49.4667 269.56 44.48 269.56 38.4C269.56 32.3733 267.64 27.3867 263.8 23.44C260.013 19.4933 255.213 17.52 249.4 17.52C243.587 17.52 238.76 19.4933 234.92 23.44C231.133 27.3867 229.24 32.3733 229.24 38.4C229.24 44.4267 231.133 49.4133 234.92 53.36C238.76 57.3067 243.587 59.28 249.4 59.28C255.213 59.28 260.013 57.3067 263.8 53.36ZM237.1 38.4C237.1 42.51 238.293 45.7932 240.645 48.2978C243.002 50.8091 245.91 52.06 249.4 52.06C252.89 52.06 255.798 50.8091 258.155 48.2978C260.507 45.7932 261.7 42.51 261.7 38.4C261.7 34.3454 260.508 31.0883 258.156 28.5825C255.741 26.0136 252.832 24.74 249.4 24.74C245.969 24.74 243.059 26.0135 240.645 28.5822M237.1 38.4C237.1 34.3453 238.292 31.0881 240.644 28.5823ZM240.28 48.64C237.827 46.0267 236.6 42.6133 236.6 38.4C236.6 34.24 237.827 30.8533 240.28 28.24C242.787 25.5733 245.827 24.24 249.4 24.24C252.973 24.24 256.013 25.5733 258.52 28.24C260.973 30.8533 262.2 34.24 262.2 38.4C262.2 42.6133 260.973 46.0267 258.52 48.64C256.067 51.2533 253.027 52.56 249.4 52.56C245.773 52.56 242.733 51.2533 240.28 48.64Z" fill="#D85040"/>
<path d="M170.84 58H163.48V18.8H170.52V24.24H170.84C171.96 22.32 173.667 20.72 175.96 19.44C178.307 18.16 180.627 17.52 182.92 17.52C185.8 17.52 188.333 18.1867 190.52 19.52C192.707 20.8533 194.307 22.6933 195.32 25.04C198.573 20.0267 203.08 17.52 208.84 17.52C213.373 17.52 216.867 18.9067 219.32 21.68C221.773 24.4533 223 28.4 223 33.52V58H215.64V34.64C215.64 30.96 214.973 28.32 213.64 26.72C212.307 25.0667 210.067 24.24 206.92 24.24C204.093 24.24 201.72 25.44 199.8 27.84C197.88 30.24 196.92 33.0667 196.92 36.32V58H189.56V34.64C189.56 30.96 188.893 28.32 187.56 26.72C186.227 25.0667 183.987 24.24 180.84 24.24C178.013 24.24 175.64 25.44 173.72 27.84C171.8 30.24 170.84 33.0667 170.84 36.32V58Z" fill="#F2BD42"/>
<path fill-rule="evenodd" clip-rule="evenodd" d="M171.34 58.5H162.98V18.3H171.02V23.0465C172.167 21.4537 173.738 20.1077 175.716 19.0034L175.721 19.001C178.128 17.6877 180.53 17.02 182.92 17.02C185.88 17.02 188.506 17.7062 190.78 19.0931C192.798 20.3234 194.34 21.9728 195.398 24.0339C198.699 19.372 203.192 17.02 208.84 17.02C213.482 17.02 217.125 18.4445 219.695 21.3487C222.255 24.2433 223.5 28.3247 223.5 33.52V58.5H215.14V34.64C215.14 30.9964 214.475 28.5034 213.256 27.0401L213.251 27.0339C212.051 25.5463 209.99 24.74 206.92 24.74C204.26 24.74 202.025 25.8591 200.19 28.1524C198.346 30.4583 197.42 33.1731 197.42 36.32V58.5H189.06V34.64C189.06 30.9964 188.395 28.5034 187.176 27.0401L187.171 27.0339C185.971 25.5463 183.91 24.74 180.84 24.74C178.18 24.74 175.945 25.8591 174.11 28.1524C172.266 30.4583 171.34 33.1731 171.34 36.32V58.5ZM195.648 24.5487C195.538 24.7097 195.428 24.8735 195.32 25.04C195.242 24.8584 195.16 24.6798 195.074 24.5043C194.056 22.4116 192.537 20.7502 190.52 19.52C188.333 18.1867 185.8 17.52 182.92 17.52C180.627 17.52 178.307 18.16 175.96 19.44C173.786 20.6533 172.14 22.154 171.02 23.9422C170.958 24.0406 170.898 24.1399 170.84 24.24H170.52V18.8H163.48V58H170.84V36.32C170.84 33.0667 171.8 30.24 173.72 27.84C175.64 25.44 178.013 24.24 180.84 24.24C183.987 24.24 186.227 25.0667 187.56 26.72C188.893 28.32 189.56 30.96 189.56 34.64V58H196.92V36.32C196.92 33.0667 197.88 30.24 199.8 27.84C201.72 25.44 204.093 24.24 206.92 24.24C210.067 24.24 212.307 25.0667 213.64 26.72C214.973 28.32 215.64 30.96 215.64 34.64V58H223V33.52C223 28.4 221.773 24.4533 219.32 21.68C216.867 18.9067 213.373 17.52 208.84 17.52C203.271 17.52 198.874 19.8629 195.648 24.5487Z" fill="#F2BD42"/>
<path d="M118.96 59H110.08L97.84 40.52L91.84 46.44V59H84.48V1.72H91.84V37L108.8 19.8H118.24V20.12L102.96 35.32L118.96 58.68V59Z" fill="#F2BD42"/>
<path fill-rule="evenodd" clip-rule="evenodd" d="M119.46 59.5H109.811L97.7587 41.3027L92.34 46.6491V59.5H83.98V1.22H92.34V35.7808L108.591 19.3H118.74V20.3279L103.608 35.3809L119.46 58.5252V59.5ZM102.96 35.32L118.24 20.12V19.8H108.8L91.84 37V1.72H84.48V59H91.84V46.44L97.84 40.52L110.08 59H118.96V58.68L102.96 35.32Z" fill="#F2BD42"/>
<path d="M38.24 38.4C38.24 32.3733 40.1334 27.3867 43.92 23.44C47.76 19.4933 52.5867 17.52 58.4 17.52C64.2134 17.52 69.0134 19.4933 72.8 23.44C76.64 27.3867 78.56 32.3733 78.56 38.4C78.56 44.48 76.64 49.4667 72.8 53.36C69.0134 57.3067 64.2134 59.28 58.4 59.28C52.5867 59.28 47.76 57.3067 43.92 53.36C40.1334 49.4133 38.24 44.4267 38.24 38.4ZM45.6 38.4C45.6 42.6133 46.8267 46.0267 49.28 48.64C51.7334 51.2533 54.7734 52.56 58.4 52.56C62.0267 52.56 65.0667 51.2533 67.52 48.64C69.9734 46.0267 71.2 42.6133 71.2 38.4C71.2 34.24 69.9734 30.8533 67.52 28.24C65.0134 25.5733 61.9734 24.24 58.4 24.24C54.8267 24.24 51.7867 25.5733 49.28 28.24C46.8267 30.8533 45.6 34.24 45.6 38.4Z" fill="#EF3A35"/>
<path fill-rule="evenodd" clip-rule="evenodd" d="M43.5592 23.0938L43.5616 23.0913C47.5015 19.0421 52.4601 17.02 58.4 17.02C64.3394 17.02 69.2725 19.0418 73.1597 23.0927C77.0986 27.1417 79.06 32.2573 79.06 38.4C79.06 44.5941 77.0998 49.7112 73.1585 53.7086C69.2714 57.7586 64.3388 59.78 58.4 59.78C52.4601 59.78 47.5015 57.7579 43.5617 53.7087L43.5592 53.7062C39.6738 49.6565 37.74 44.5414 37.74 38.4C37.74 32.2587 39.6738 27.1435 43.5592 23.0938ZM72.8 53.36C76.64 49.4667 78.56 44.48 78.56 38.4C78.56 32.3733 76.64 27.3867 72.8 23.44C69.0134 19.4933 64.2134 17.52 58.4 17.52C52.5867 17.52 47.76 19.4933 43.92 23.44C40.1334 27.3867 38.24 32.3733 38.24 38.4C38.24 44.4267 40.1334 49.4133 43.92 53.36C47.76 57.3067 52.5867 59.28 58.4 59.28C64.2134 59.28 69.0134 57.3067 72.8 53.36ZM46.1 38.4C46.1 42.51 47.2933 45.7932 49.6446 48.2978C52.0021 50.8091 54.9096 52.06 58.4 52.06C61.8904 52.06 64.7979 50.8091 67.1555 48.2978C69.5068 45.7932 70.7 42.51 70.7 38.4C70.7 34.3454 69.508 31.0883 67.1557 28.5825C64.741 26.0136 61.8316 24.74 58.4 24.74C54.9685 24.74 52.0593 26.0135 49.6446 28.5822M46.1 38.4C46.1 34.3453 47.2921 31.0881 49.6445 28.5823ZM49.28 48.64C46.8267 46.0267 45.6 42.6133 45.6 38.4C45.6 34.24 46.8267 30.8533 49.28 28.24C51.7867 25.5733 54.8267 24.24 58.4 24.24C61.9734 24.24 65.0134 25.5733 67.52 28.24C69.9734 30.8533 71.2 34.24 71.2 38.4C71.2 42.6133 69.9734 46.0267 67.52 48.64C65.0667 51.2533 62.0267 52.56 58.4 52.56C54.7734 52.56 51.7334 51.2533 49.28 48.64Z" fill="#D85040"/>
<path d="M8.12001 34.8V58H0.76001V0.720001H20.28C25.24 0.720001 29.4533 2.37333 32.92 5.68C36.44 8.98667 38.2 13.0133 38.2 17.76C38.2 22.6133 36.44 26.6667 32.92 29.92C29.5067 33.1733 25.2933 34.8 20.28 34.8H8.12001ZM8.12001 7.76V27.76H20.44C23.3733 27.76 25.8 26.7733 27.72 24.8C29.6933 22.8267 30.68 20.48 30.68 17.76C30.68 15.0933 29.6933 12.7733 27.72 10.8C25.8 8.77334 23.3733 7.76 20.44 7.76H8.12001Z" fill="#5186EC"/>
<path fill-rule="evenodd" clip-rule="evenodd" d="M8.62001 58.5H0.26001V0.220001H20.28C25.3629 0.220001 29.7009 1.91903 33.2639 5.31707C36.8815 8.71609 38.7 12.8733 38.7 17.76C38.7 22.7494 36.8842 26.9356 33.2623 30.2845C29.7502 33.6307 25.4116 35.3 20.28 35.3H8.62001V58.5ZM8.12001 34.8H20.28C25.2933 34.8 29.5067 33.1733 32.92 29.92C36.44 26.6667 38.2 22.6133 38.2 17.76C38.2 13.0133 36.44 8.98667 32.92 5.68C29.4533 2.37333 25.24 0.720001 20.28 0.720001H0.76001V58H8.12001V34.8ZM27.3665 24.4464C29.2488 22.5642 30.18 20.3436 30.18 17.76C30.18 15.2327 29.2509 13.038 27.3665 11.1536L27.3569 11.144C25.5366 9.22254 23.2439 8.26 20.44 8.26H8.62001V27.26H20.44C23.2482 27.26 25.5424 26.3211 27.3616 24.4513L27.3665 24.4464ZM8.12001 27.76V7.76H20.44C23.3733 7.76 25.8 8.77333 27.72 10.8C29.6933 12.7733 30.68 15.0933 30.68 17.76C30.68 20.48 29.6933 22.8267 27.72 24.8C25.8 26.7733 23.3733 27.76 20.44 27.76H8.12001Z" fill="#5186EC"/>
<path d="M145.903 57.4366C140.6 59.6865 135.46 59.7241 130.482 57.5492C125.503 55.3743 121.837 51.5129 119.483 45.965C117.15 40.4662 116.882 35.192 118.679 30.1422C120.455 25.0434 123.945 21.3899 129.149 19.1816C134.501 16.9109 139.487 16.8518 144.108 19.0044C148.758 21.0871 152.405 25.246 155.051 31.4812L155.29 32.2489L126.937 44.2796C128.535 47.7729 130.921 50.1205 134.096 51.3225C137.272 52.5244 140.43 52.4588 143.572 51.1255C147.893 49.2922 150.364 45.6946 150.985 40.3325L158.274 40.7159C157.946 44.4473 156.698 47.7868 154.53 50.7343C152.412 53.6609 149.536 55.895 145.903 57.4366ZM125.077 38.4639L145.771 29.6831C144.513 27.2625 142.607 25.6379 140.054 24.8094C137.529 23.9109 134.72 24.1179 131.627 25.4303C129.074 26.5136 127.198 28.2366 125.999 30.5993C124.849 32.9412 124.542 35.5627 125.077 38.4639Z" fill="#5186EC"/>
<path fill-rule="evenodd" clip-rule="evenodd" d="M158.225 41.214C157.832 44.7451 156.601 47.9186 154.53 50.7343C152.412 53.6609 149.536 55.895 145.903 57.4366C140.6 59.6865 135.46 59.7241 130.482 57.5492C125.503 55.3743 121.837 51.5129 119.483 45.965C117.15 40.4662 116.882 35.192 118.679 30.1422C120.455 25.0434 123.945 21.3899 129.149 19.1816C134.501 16.9109 139.487 16.8518 144.108 19.0044C148.758 21.0871 152.405 25.246 155.051 31.4812L155.29 32.2489L126.937 44.2796C127.007 44.4325 127.078 44.5833 127.151 44.7318C128.745 47.9763 131.06 50.1732 134.096 51.3225C137.272 52.5244 140.43 52.4588 143.572 51.1255C147.893 49.2923 150.364 45.6946 150.985 40.3325L158.274 40.7159C158.26 40.8827 158.243 41.0487 158.225 41.214ZM127.612 44.5362C129.157 47.6682 131.379 49.7591 134.274 50.8549C137.327 52.011 140.353 51.9485 143.377 50.6652C147.504 48.914 149.884 45.4905 150.489 40.2749L150.543 39.8085L158.818 40.2438L158.772 40.7597C158.436 44.5794 157.157 48.006 154.934 51.0287C152.758 54.0352 149.806 56.3234 146.098 57.8969C140.678 60.1969 135.394 60.2409 130.281 58.0074C125.173 55.7756 121.421 51.8119 119.023 46.1604C116.647 40.561 116.364 35.1573 118.207 29.9762C120.032 24.738 123.627 20.9816 128.954 18.7214C134.414 16.4044 139.549 16.3302 144.316 18.5497C149.113 20.6995 152.834 24.9752 155.511 31.2859L155.521 31.3089L155.902 32.5325L127.612 44.5362ZM139.886 25.2804C137.507 24.4339 134.83 24.6141 131.822 25.8906C129.373 26.9297 127.589 28.5717 126.446 30.8225C125.432 32.8899 125.099 35.1949 125.467 37.7552L145.066 29.4392C143.872 27.3955 142.155 26.0169 139.899 25.2849L139.886 25.2804ZM145.53 29.2423C145.613 29.3862 145.693 29.5331 145.771 29.6831L125.077 38.4639C125.046 38.294 125.017 38.125 124.992 37.957C124.58 35.2566 124.916 32.804 125.999 30.5993C127.198 28.2366 129.074 26.5136 131.627 25.4303C134.72 24.1179 137.529 23.9109 140.054 24.8094C142.448 25.5866 144.274 27.0642 145.53 29.2423Z" fill="#5186EC"/>
</svg>
